# xmcd
#
# Track frame offsets:
#	150
#	17302
#	34125
#	69412
#	101597
#	140022
#
# Disc length: 2089 seconds
#
# Revision: 3
# Processed by: cddbd v1.5.2PL0 Copyright (c) Steve Scherf et al.
# Submitted via: EasyCDDAExtractor 2010.6.0.0
#
DISCID=47082706
DTITLE=Alexia - Number One
DYEAR=1996
DGENRE=Dance
TTITLE0=Number One (Radio Mix)
TTITLE1=Number One (Club Short Mix)
TTITLE2=Number One (Euro mix)
TTITLE3=Number One (Club Mix)
TTITLE4=Number One (Galaxy Mix)
TTITLE5=Number One (Acappella)
EXTD=
EXTT0=
EXTT1=
EXTT2=
EXTT3=
EXTT4=
EXTT5=
PLAYORDER=
